<mxfile host="app.diagrams.net" modified="2023-09-14T07:40:52.966Z" agent="Mozilla/5.0 (Windows NT 10.0; Win64; x64) AppleWebKit/537.36 (KHTML, like Gecko) Chrome/116.0.0.0 Safari/537.36" version="21.5.1" etag="ny0KcAUPqe59gmskPTT6" type="github">
  <diagram name="第 1 页" id="PWvIxCLBLNxjCponoVfn">
    <mxGraphModel>
      <root>
        <mxCell id="0" />
        <mxCell id="1" parent="0" />
      </root>
    </mxGraphModel>
  </diagram>
</mxfile>
